# xmcd
#
# Track frame offsets:
#	150
#	10248
#	29222
#	44407
#	63144
#	89885
#	106928
#	126750
#	142180
#	152104
#	168284
#	183507
#	205379
#	223356
#	245989
#
# Disc length: 3681 seconds
#
# Revision: 0
# Processed by: cddbd v1.5.2PL0 Copyright (c) Steve Scherf et al.
# Submitted via: audiograbber 1.83.01
#
DISCID=ed0e5f0f
DTITLE=Diversen - Visbakfestival 2000
DYEAR=2000
DGENRE=Pop
TTITLE0=The Tourist - Everytime blue seas
TTITLE1=The Tourist - Realise won't mind
TTITLE2=The Tourist - Walkaway man
TTITLE3=Soda P - Turquise
TTITLE4=Soda P - Intermezzo
TTITLE5=Soda P - Put a fact on record
TTITLE6=The Einzelganger Collective - Not man enough
TTITLE7=The Einzelganger Collective - Mariah
TTITLE8=The Einzelganger Collective - Adapter
TTITLE9=Pajotini - Le permetto questo ballo
TTITLE10=Pajotini - Pornpower
TTITLE11=Pajotini - Le permetto questo ballo (laidback remix)
TTITLE12=Short Stories - Bogus
TTITLE13=Short Stories - Going home
TTITLE14=Short Stories - Look at the other side
EXTD=
EXTT0=
EXTT1=
EXTT2=
EXTT3=
EXTT4=
EXTT5=
EXTT6=
EXTT7=
EXTT8=
EXTT9=
EXTT10=
EXTT11=
EXTT12=
EXTT13=
EXTT14=
PLAYORDER=
